<?xml version="1.0" encoding="utf-8"?>
<!-- Generator: Adobe Illustrator 27.5.0, SVG Export Plug-In . SVG Version: 6.00 Build 0)  -->
<svg version="1.1" id="Layer_1" xmlns="http://www.w3.org/2000/svg" xmlns:xlink="http://www.w3.org/1999/xlink" x="0px" y="0px"
	 viewBox="0 0 444.8 282.4" style="enable-background:new 0 0 444.8 282.4;" xml:space="preserve">
<style type="text/css">
	.st0{fill:#1877F2;}
	.st1{fill:none;stroke:#1877F2;stroke-width:2.1471;stroke-miterlimit:10;}
</style>
<g>
	<path class="st0" d="M409.8,21.3h-3.3l-1.1-3.6c-0.1-0.4-0.3-0.7-0.4-1.1c-0.2-0.3-0.4-0.6-0.6-0.8c-0.2-0.2-0.5-0.4-0.9-0.5
		c-0.3-0.1-0.8-0.2-1.2-0.2h-1.1v6.2h-3V5.7l6.2,0c0.7,0,1.3,0.1,1.9,0.3c0.6,0.2,1.1,0.5,1.5,0.9c0.4,0.4,0.7,0.9,1,1.4
		c0.2,0.5,0.4,1.1,0.4,1.8c0,0.5-0.1,0.9-0.2,1.3c-0.1,0.4-0.3,0.8-0.6,1.2c-0.3,0.4-0.6,0.7-0.9,1c-0.4,0.3-0.7,0.5-1.2,0.6
		c0.5,0.2,0.9,0.4,1.2,0.8c0.3,0.3,0.6,0.8,0.7,1.2c0.1,0.2,0.2,0.4,0.3,0.7c0.1,0.2,0.2,0.5,0.2,0.7c0.1,0.2,0.2,0.5,0.3,0.8
		c0.1,0.3,0.2,0.6,0.3,0.9c0.1,0.4,0.3,0.8,0.4,1.1C409.5,20.8,409.7,21.1,409.8,21.3z M405.9,10.4c0-0.4-0.1-0.7-0.2-1
		c-0.1-0.3-0.3-0.6-0.6-0.8c-0.2-0.2-0.5-0.4-0.8-0.5c-0.3-0.1-0.7-0.2-1-0.2h-2.2v4.9h2.2c0.4,0,0.7-0.1,1-0.2
		c0.3-0.1,0.6-0.3,0.8-0.5c0.2-0.2,0.4-0.5,0.6-0.8C405.8,11.1,405.9,10.8,405.9,10.4z"/>
	<path class="st0" d="M376.4,242c-23.4,0-327.2,0-327.2,0V21.6c0,0,305.1,0,327.2,0c22.2,0,19.7,19.3,19.7,19.3v182.3
		C396.2,223.2,399.8,242,376.4,242z M65.1,175c137.5-78.1,316.8,0.6,316.8,0.6C230.3,111.6,185.3,37.9,185.3,37.9
		C120.8,116.9,65.1,175,65.1,175 M135.4,175.2h-7.1l-9.7,16.6l-9.3-16.6H102v33.5h6.4v-22.5l10.1,18l10.6-17.8v22.4h6.4V175.2z
		 M164.5,175.2v18.5c0,1.3-0.2,2.6-0.5,3.7c-0.3,1.1-0.9,2.1-1.5,2.9c-0.7,0.8-1.5,1.5-2.6,1.9c-1,0.5-2.3,0.7-3.7,0.7
		c-1.3,0-2.5-0.2-3.6-0.7c-1-0.5-1.9-1.2-2.6-2c-0.7-0.8-1.2-1.8-1.6-3c-0.4-1.1-0.5-2.3-0.5-3.6v-18.4h-6.5v18.4
		c0,2.2,0.3,4.3,1,6.2c0.7,1.9,1.7,3.6,3,5c1.3,1.4,2.9,2.5,4.7,3.3c1.8,0.8,3.9,1.2,6.2,1.2c2.3,0,4.4-0.4,6.3-1.2
		c1.8-0.8,3.4-2,4.6-3.4c1.3-1.4,2.2-3.1,2.9-5c0.7-1.9,1-4,1-6.2v-18.2H164.5z M199.1,202.5h-16v-27.2h-6.6v33.5h22.7V202.5z
		 M220.4,175.3h-25.1v5.8h9.3v27.7h6.6v-27.7h9.3V175.3z M231.1,175.3h-6.5v33.5h6.5V175.3z M260,182.1c-0.6-1.4-1.4-2.6-2.5-3.6
		c-1-1-2.3-1.8-3.6-2.4c-1.4-0.6-2.9-0.9-4.4-0.9h-12v33.5h6.5v-10.9h5.5c1.6,0,3-0.3,4.4-0.9c1.4-0.6,2.6-1.4,3.7-2.4
		c1-1,1.9-2.2,2.5-3.6c0.6-1.4,0.9-2.9,0.9-4.5C260.9,184.9,260.6,183.4,260,182.1z M253.9,188.9c-0.3,0.8-0.8,1.4-1.3,2
		c-0.6,0.6-1.2,1.1-2,1.4c-0.8,0.3-1.6,0.5-2.4,0.5h-4.3v-12.6h4.3c0.9,0,1.7,0.2,2.4,0.5c0.8,0.3,1.4,0.8,2,1.3
		c0.6,0.6,1,1.2,1.3,2c0.3,0.8,0.5,1.6,0.5,2.4C254.4,187.3,254.2,188.1,253.9,188.9z M287.7,202.5h-16v-27.2H265v33.5h22.7V202.5z
		 M313.6,203.1h-15.7v-9.2h15.5v-5.2h-15.5v-8h15.7v-5.4h-22.1v33.5h22.1V203.1z M336.1,191.3l11.3-16.1h-8l-7.4,11.3l-7.5-11.3
		h-7.9l11.2,16.1l-12.2,17.4h8L332,196l8.3,12.7h8L336.1,191.3z M206.1,218.5c-0.2-0.5-0.5-0.9-0.9-1.3c-0.4-0.4-0.8-0.6-1.3-0.8
		c-0.5-0.2-1-0.3-1.6-0.3H198v12h2.3v-3.9h2c0.6,0,1.1-0.1,1.6-0.3s0.9-0.5,1.3-0.9c0.4-0.4,0.7-0.8,0.9-1.3c0.2-0.5,0.3-1,0.3-1.6
		C206.5,219.6,206.3,219,206.1,218.5z M204,221c-0.1,0.3-0.3,0.5-0.5,0.7c-0.2,0.2-0.4,0.4-0.7,0.5c-0.3,0.1-0.6,0.2-0.9,0.2h-1.5
		v-4.5h1.5c0.3,0,0.6,0.1,0.9,0.2c0.3,0.1,0.5,0.3,0.7,0.5c0.2,0.2,0.4,0.4,0.5,0.7c0.1,0.3,0.2,0.6,0.2,0.9
		C204.1,220.4,204.1,220.7,204,221z M216.7,227.5c-0.1-0.2-0.2-0.5-0.3-0.8c-0.1-0.3-0.2-0.5-0.2-0.7s-0.1-0.4-0.2-0.6
		c-0.1-0.2-0.1-0.4-0.2-0.5c-0.1-0.2-0.1-0.3-0.2-0.5c-0.1-0.4-0.3-0.7-0.6-1c-0.2-0.3-0.5-0.5-0.9-0.6c0.3-0.1,0.6-0.3,0.9-0.5
		c0.3-0.2,0.5-0.5,0.7-0.7c0.2-0.3,0.4-0.6,0.5-0.9c0.1-0.3,0.2-0.7,0.2-1c0-0.5-0.1-0.9-0.3-1.4c-0.2-0.4-0.4-0.8-0.7-1.1
		c-0.3-0.3-0.7-0.6-1.1-0.7c-0.4-0.2-0.9-0.3-1.4-0.3l-4.7,0v12h2.3v-4.8h0.9c0.4,0,0.7,0.1,0.9,0.2c0.3,0.1,0.5,0.2,0.7,0.4
		c0.2,0.2,0.4,0.4,0.5,0.6c0.1,0.2,0.2,0.5,0.3,0.8l0.9,2.7h2.6C216.9,227.9,216.8,227.7,216.7,227.5z M213.8,220.5
		c-0.1,0.2-0.2,0.4-0.4,0.6c-0.2,0.2-0.4,0.3-0.6,0.4c-0.2,0.1-0.5,0.1-0.8,0.1h-1.7v-3.7h1.7c0.3,0,0.5,0,0.8,0.1
		c0.2,0.1,0.5,0.2,0.6,0.4c0.2,0.2,0.3,0.4,0.4,0.6c0.1,0.2,0.2,0.5,0.2,0.8C213.9,220,213.9,220.3,213.8,220.5z M230.2,219.7
		c-0.3-0.8-0.8-1.4-1.4-2c-0.6-0.6-1.3-1-2-1.3c-0.8-0.3-1.6-0.5-2.5-0.5c-0.9,0-1.7,0.2-2.5,0.5c-0.8,0.3-1.5,0.8-2,1.3
		c-0.6,0.6-1,1.2-1.4,2c-0.3,0.8-0.5,1.6-0.5,2.4c0,0.9,0.2,1.7,0.5,2.4c0.3,0.8,0.8,1.4,1.4,2c0.6,0.6,1.3,1,2,1.3
		c0.8,0.3,1.6,0.5,2.5,0.5c0.9,0,1.7-0.2,2.5-0.5c0.8-0.3,1.4-0.8,2-1.3c0.6-0.6,1-1.2,1.4-2c0.3-0.8,0.5-1.6,0.5-2.4
		C230.7,221.2,230.5,220.4,230.2,219.7z M228.1,223.7c-0.2,0.5-0.5,0.9-0.9,1.3c-0.4,0.4-0.8,0.7-1.3,0.9c-0.5,0.2-1,0.3-1.6,0.3
		c-0.6,0-1.1-0.1-1.6-0.3c-0.5-0.2-0.9-0.5-1.3-0.9c-0.4-0.4-0.7-0.8-0.9-1.3c-0.2-0.5-0.3-1-0.3-1.5c0-0.6,0.1-1.1,0.3-1.6
		c0.2-0.5,0.5-0.9,0.9-1.3c0.4-0.4,0.8-0.7,1.3-0.9c0.5-0.2,1-0.3,1.6-0.3c0.6,0,1.1,0.1,1.6,0.3c0.5,0.2,0.9,0.5,1.3,0.9
		c0.4,0.4,0.7,0.8,0.9,1.3c0.2,0.5,0.3,1,0.3,1.6C228.4,222.6,228.3,223.2,228.1,223.7z M240.6,218.5c-0.2-0.5-0.5-0.9-0.9-1.3
		c-0.4-0.4-0.8-0.6-1.3-0.8c-0.5-0.2-1-0.3-1.6-0.3h-4.3v12h2.3v-3.9h2c0.6,0,1.1-0.1,1.6-0.3c0.5-0.2,0.9-0.5,1.3-0.9
		c0.4-0.4,0.7-0.8,0.9-1.3c0.2-0.5,0.3-1,0.3-1.6C241,219.6,240.9,219,240.6,218.5z M238.5,221c-0.1,0.3-0.3,0.5-0.5,0.7
		c-0.2,0.2-0.4,0.4-0.7,0.5c-0.3,0.1-0.6,0.2-0.9,0.2h-1.5v-4.5h1.5c0.3,0,0.6,0.1,0.9,0.2c0.3,0.1,0.5,0.3,0.7,0.5
		c0.2,0.2,0.4,0.4,0.5,0.7c0.1,0.3,0.2,0.6,0.2,0.9C238.6,220.4,238.6,220.7,238.5,221z M250.4,226.1h-5.7v-3.3h5.6v-1.9h-5.6V218
		h5.7v-1.9h-7.9v12h7.9V226.1z M260.9,227.5c-0.1-0.2-0.2-0.5-0.3-0.8c-0.1-0.3-0.2-0.5-0.2-0.7c-0.1-0.2-0.1-0.4-0.2-0.6
		c-0.1-0.2-0.1-0.4-0.2-0.5c-0.1-0.2-0.1-0.3-0.2-0.5c-0.1-0.4-0.3-0.7-0.6-1c-0.2-0.3-0.5-0.5-0.9-0.6c0.3-0.1,0.6-0.3,0.9-0.5
		c0.3-0.2,0.5-0.5,0.7-0.7c0.2-0.3,0.4-0.6,0.5-0.9c0.1-0.3,0.2-0.7,0.2-1c0-0.5-0.1-0.9-0.3-1.4c-0.2-0.4-0.4-0.8-0.7-1.1
		c-0.3-0.3-0.7-0.6-1.1-0.7c-0.4-0.2-0.9-0.3-1.4-0.3l-4.7,0v12h2.3v-4.8h0.9c0.4,0,0.7,0.1,0.9,0.2c0.3,0.1,0.5,0.2,0.7,0.4
		c0.2,0.2,0.4,0.4,0.5,0.6c0.1,0.2,0.2,0.5,0.3,0.8l0.9,2.7h2.6C261.1,227.9,261,227.7,260.9,227.5z M258,220.5
		c-0.1,0.2-0.2,0.4-0.4,0.6c-0.2,0.2-0.4,0.3-0.6,0.4c-0.2,0.1-0.5,0.1-0.8,0.1h-1.7v-3.7h1.7c0.3,0,0.5,0,0.8,0.1
		c0.2,0.1,0.5,0.2,0.6,0.4c0.2,0.2,0.3,0.4,0.4,0.6c0.1,0.2,0.2,0.5,0.2,0.8C258.2,220,258.1,220.3,258,220.5z M270.9,216.1h-9v2.1
		h3.3v9.9h2.4v-9.9h3.3V216.1z M280.5,216.1l-3.3,5.1l-3.1-5.1h-2.7l4.6,7.1v5h2.4v-4.9l4.9-7.1H280.5z M300.4,221.9h-4.7v2h2.5v1.2
		c-0.4,0.3-0.8,0.6-1.3,0.8c-0.5,0.2-1,0.3-1.5,0.3c-0.6,0-1.1-0.1-1.6-0.3c-0.5-0.2-0.9-0.5-1.3-0.9c-0.4-0.4-0.7-0.8-0.9-1.3
		c-0.2-0.5-0.3-1-0.3-1.6c0-0.6,0.1-1.1,0.3-1.6c0.2-0.5,0.5-0.9,0.9-1.3c0.4-0.4,0.8-0.7,1.3-0.9c0.5-0.2,1-0.3,1.6-0.3
		c0.7,0,1.3,0.1,1.9,0.4c0.6,0.3,1.1,0.7,1.5,1.3l1.6-1.6c-0.6-0.7-1.3-1.3-2.2-1.7c-0.8-0.4-1.8-0.6-2.8-0.6
		c-0.9,0-1.7,0.2-2.5,0.5c-0.8,0.3-1.5,0.8-2.1,1.3c-0.6,0.6-1,1.2-1.4,2s-0.5,1.6-0.5,2.4c0,0.9,0.2,1.7,0.5,2.5
		c0.3,0.8,0.8,1.4,1.4,2c0.6,0.6,1.3,1,2,1.3c0.8,0.3,1.6,0.5,2.5,0.5c0.5,0,0.9,0,1.4-0.1c0.5-0.1,0.9-0.2,1.3-0.4
		c0.4-0.2,0.9-0.5,1.3-0.8c0.4-0.3,0.8-0.7,1.1-1.1V221.9z M310.9,227.5c-0.1-0.2-0.2-0.5-0.3-0.8c-0.1-0.3-0.2-0.5-0.2-0.7
		s-0.1-0.4-0.2-0.6c-0.1-0.2-0.1-0.4-0.2-0.5c-0.1-0.2-0.1-0.3-0.2-0.5c-0.1-0.4-0.3-0.7-0.6-1c-0.2-0.3-0.5-0.5-0.9-0.6
		c0.3-0.1,0.6-0.3,0.9-0.5c0.3-0.2,0.5-0.5,0.7-0.7c0.2-0.3,0.4-0.6,0.5-0.9c0.1-0.3,0.2-0.7,0.2-1c0-0.5-0.1-0.9-0.3-1.4
		c-0.2-0.4-0.4-0.8-0.7-1.1c-0.3-0.3-0.7-0.6-1.1-0.7c-0.4-0.2-0.9-0.3-1.4-0.3l-4.7,0v12h2.3v-4.8h0.9c0.4,0,0.7,0.1,0.9,0.2
		c0.3,0.1,0.5,0.2,0.7,0.4c0.2,0.2,0.4,0.4,0.5,0.6c0.1,0.2,0.2,0.5,0.3,0.8l0.9,2.7h2.6C311.1,227.9,311,227.7,310.9,227.5z
		 M308.1,220.5c-0.1,0.2-0.2,0.4-0.4,0.6c-0.2,0.2-0.4,0.3-0.6,0.4c-0.2,0.1-0.5,0.1-0.8,0.1h-1.7v-3.7h1.7c0.3,0,0.5,0,0.8,0.1
		c0.2,0.1,0.5,0.2,0.6,0.4c0.2,0.2,0.3,0.4,0.4,0.6c0.1,0.2,0.2,0.5,0.2,0.8C308.2,220,308.2,220.3,308.1,220.5z M324.5,219.7
		c-0.3-0.8-0.8-1.4-1.4-2c-0.6-0.6-1.3-1-2-1.3c-0.8-0.3-1.6-0.5-2.5-0.5c-0.9,0-1.7,0.2-2.5,0.5c-0.8,0.3-1.5,0.8-2,1.3
		c-0.6,0.6-1,1.2-1.4,2c-0.3,0.8-0.5,1.6-0.5,2.4c0,0.9,0.2,1.7,0.5,2.4c0.3,0.8,0.8,1.4,1.4,2c0.6,0.6,1.3,1,2,1.3
		c0.8,0.3,1.6,0.5,2.5,0.5c0.9,0,1.7-0.2,2.5-0.5c0.8-0.3,1.4-0.8,2-1.3c0.6-0.6,1-1.2,1.4-2c0.3-0.8,0.5-1.6,0.5-2.4
		C325,221.2,324.8,220.4,324.5,219.7z M322.3,223.7c-0.2,0.5-0.5,0.9-0.9,1.3c-0.4,0.4-0.8,0.7-1.3,0.9c-0.5,0.2-1,0.3-1.6,0.3
		c-0.6,0-1.1-0.1-1.6-0.3c-0.5-0.2-0.9-0.5-1.3-0.9c-0.4-0.4-0.7-0.8-0.9-1.3c-0.2-0.5-0.3-1-0.3-1.5c0-0.6,0.1-1.1,0.3-1.6
		c0.2-0.5,0.5-0.9,0.9-1.3c0.4-0.4,0.8-0.7,1.3-0.9c0.5-0.2,1-0.3,1.6-0.3c0.6,0,1.1,0.1,1.6,0.3c0.5,0.2,0.9,0.5,1.3,0.9
		c0.4,0.4,0.7,0.8,0.9,1.3c0.2,0.5,0.3,1,0.3,1.6C322.7,222.6,322.6,223.2,322.3,223.7z M335,216.1v6.6c0,0.5-0.1,0.9-0.2,1.3
		c-0.1,0.4-0.3,0.7-0.6,1c-0.2,0.3-0.6,0.5-0.9,0.7c-0.4,0.2-0.8,0.2-1.3,0.2c-0.5,0-0.9-0.1-1.3-0.3c-0.4-0.2-0.7-0.4-0.9-0.7
		c-0.3-0.3-0.4-0.7-0.6-1.1c-0.1-0.4-0.2-0.8-0.2-1.3v-6.6h-2.3v6.6c0,0.8,0.1,1.5,0.4,2.2c0.3,0.7,0.6,1.3,1.1,1.8
		c0.5,0.5,1,0.9,1.7,1.2c0.7,0.3,1.4,0.4,2.2,0.4c0.8,0,1.6-0.1,2.2-0.4c0.7-0.3,1.2-0.7,1.7-1.2c0.5-0.5,0.8-1.1,1-1.8
		c0.2-0.7,0.4-1.4,0.4-2.2v-6.5H335z M347.4,218.5c-0.2-0.5-0.5-0.9-0.9-1.3c-0.4-0.4-0.8-0.6-1.3-0.8c-0.5-0.2-1-0.3-1.6-0.3h-4.3
		v12h2.3v-3.9h2c0.6,0,1.1-0.1,1.6-0.3s0.9-0.5,1.3-0.9c0.4-0.4,0.7-0.8,0.9-1.3c0.2-0.5,0.3-1,0.3-1.6
		C347.7,219.6,347.6,219,347.4,218.5z M345.2,221c-0.1,0.3-0.3,0.5-0.5,0.7c-0.2,0.2-0.4,0.4-0.7,0.5c-0.3,0.1-0.6,0.2-0.9,0.2h-1.5
		v-4.5h1.5c0.3,0,0.6,0.1,0.9,0.2c0.3,0.1,0.5,0.3,0.7,0.5c0.2,0.2,0.4,0.4,0.5,0.7c0.1,0.3,0.2,0.6,0.2,0.9
		C345.4,220.4,345.3,220.7,345.2,221z"/>
	<g>
		<path class="st0" d="M126.8,274.9c-0.5,1.5-0.9,2.9-1.3,3.9l-9.8,0c-3.3,0-5.5-0.1-6.7-0.2c-1.1-0.1-2.2-0.4-3.3-0.9
			c-1.1-0.4-2-1-2.7-1.8l-3.4,3.5l-1.7-4.5l2.9-2.5v-8h-2.7v-3.7h6.6v11.8c1.5,1.7,3.9,2.6,7.2,2.6C120,275,125,275,126.8,274.9z
			 M102.1,250.6c1.5,1.9,2.8,3.7,4,5.4l-3.4,2.3c-1.2-2-2.4-4-3.7-5.8L102.1,250.6z M123.1,266c1.2,0.6,2.3,1.1,3.5,1.5
			c-0.4,2.6-0.8,4.3-1.4,5c-0.6,0.7-1.6,1.1-3,1.1h-2c-2.4,0-3.6-1.2-3.6-3.7v-6.8h-2.7c-0.1,3.2-0.5,5.6-1.4,7.2
			c-0.8,1.6-2.1,2.9-3.9,3.9c-0.7-1-1.7-2-2.9-3.1c1.6-0.8,2.7-1.8,3.3-2.9c0.6-1.1,0.9-2.8,1-5.1h-4v-3.6h19.9v3.6h-5.3v5.7
			c0,0.8,0.3,1.2,0.8,1.2h0.7c0.3,0,0.5-0.1,0.6-0.4C122.7,269.3,122.9,268.1,123.1,266z M107.2,252h17.1v3.6h-17.1V252z"/>
		<path class="st0" d="M135.8,268c2.2,1.8,3.4,2.7,3.5,2.7c-2.4,2.6-4.8,5.1-7.4,7.3c-0.9-1.1-2-2.1-3.1-3.1
			C131.1,272.9,133.4,270.6,135.8,268z M129.6,254h8c0.7-1.2,1.3-2.5,1.8-3.7l4.8,0.5c-0.5,1-1,2.1-1.6,3.2h15v3.8h-17.3
			c-1.1,1.8-2.4,3.7-3.9,5.7h6.3v-4.2h4.4v4.2h9.5v3.8h-9.5v6.8c0,1.4-0.3,2.6-1,3.4c-0.6,0.8-1.5,1.3-2.7,1.4
			c-1.1,0.2-3,0.2-5.5,0.2c-0.2-1-0.5-2.5-1-4.4c1.6,0.2,2.9,0.2,4,0.2c1.1,0,1.7-0.6,1.7-1.8v-5.8h-11.4v-4.1
			c1.5-1.8,2.8-3.6,4-5.5h-5.7V254z M151.4,268.6l7.2,5.7l-3,3.3c-2.1-2-4.4-4.1-6.9-6.1L151.4,268.6z"/>
		<path class="st0" d="M177.7,250.4h3.9v6.1l6.8-1.6l-0.1,5.5c-0.1,4.5-0.3,7-0.6,7.6c-0.2,0.5-0.6,1-1,1.4
			c-0.4,0.4-1.8,0.7-4.1,0.9c-0.3-1.3-0.6-2.6-1-3.9c0.4,0,0.8,0.1,1.2,0.1c0.6,0,1-0.1,1.2-0.2c0.2-0.1,0.3-0.2,0.4-0.4
			c0.1-0.2,0.1-0.8,0.2-1.8c0-1,0.1-2.5,0.1-4.5l-3.1,0.8v13.2h-3.9v-12.2l-2.7,0.7v11.6c0,1.1,0.6,1.6,1.9,1.6h5.8
			c0.7,0,1.3-0.1,1.8-0.3c0.5-0.2,0.8-0.5,0.9-1c0.1-0.5,0.3-1.6,0.6-3.5c1.6,0.7,2.9,1.2,4,1.6c-0.5,2.4-1,3.9-1.4,4.6
			c-0.4,0.6-0.9,1.1-1.5,1.5c-0.7,0.4-1.4,0.5-2.3,0.5h-8.7c-3.3,0-5-1.5-5-4.5v-11.2l-2,0.5l-0.2-1h-1.3v8.9l2.6-0.8
			c-0.1,0.8-0.1,2.2,0,4.1l-8.6,3l-0.8-4.4l2.9-0.8v-10h-2.3v-4h2.3v-7.9h3.9v7.9h1.7v1l1.8-0.4V253h3.9v5l2.7-0.6V250.4z"/>
		<path class="st0" d="M195.3,262.5h5.6c-0.8-1-1.8-2.1-2.9-3.4l3.1-1.8h-7.7v-3.7h11.7c-0.3-0.9-0.6-1.7-1-2.6l4.6-0.7l0.8,3.3H221
			v3.7h-8.1l3.8,1.8l-3,3.4h6.9v3.7h-21.3v0.7c0,4.3-1.3,8.6-3.8,12.7c-0.7-0.8-1.8-1.8-3.1-3c2-3.2,3-6.6,3.1-10.2V262.5z
			 M205.4,261.6l-1.5,0.9h4.9c1.1-1.6,2.3-3.3,3.6-5.2h-10.6L205.4,261.6z"/>
		<path class="st0" d="M242,250.6l-1,1.1c2.9,3.6,6.9,6.4,12.1,8.3c-0.9,1.5-1.7,2.8-2.4,4c-5.2-2.7-9.2-5.8-12.1-9.3
			c-2.7,3.5-6.8,6.8-12.3,9.8c-0.5-0.9-1.4-2.2-2.5-3.8c5.8-2.6,10-5.9,12.8-10H242z M224.9,274.4h4.2v-11.3h4.3v11.3h4.2v-14.8h4.3
			v5.6h7.5v3.8h-7.5v5.4h10.3v3.8h-27.2V274.4z"/>
		<path class="st0" d="M263.9,251h4.3v23.1h3.8V251h4.2v15.9c1.6-3.2,3.2-6.8,4.7-11l3.8,1.6c-1.5,3.7-3.3,7.7-5.3,12.1l-3.1-1.5
			v5.9h8.5v4h-29v-4h8.3v-5.8l-3.3,1.4c-1.6-4.6-3.2-8.7-4.8-12.6l3.5-1.6c1.7,3.8,3.2,7.5,4.6,11V251z"/>
		<path class="st0" d="M303.5,250.3c0.5,0.9,1,1.9,1.5,2.9h9.5v2.5h-9.8v1.6h8.7v2.3h-8.7v1.6h8.7v2.3h-8.7v1.6H315v2.6h-20.8v1.1
			h-3.9v-8.5c-0.5,0.5-1.1,1-1.6,1.5c-0.5-1.6-1.1-3-1.6-4.3c2.4-1.8,4.3-4.2,5.8-7l4.1,0.9c-0.3,0.6-0.7,1.3-1,1.9h5
			c-0.4-0.8-0.7-1.6-1.1-2.3L303.5,250.3z M299.6,268.4h3.9v1.4h12.3v2.8h-8.6c2.4,1.4,5.4,2.3,9,3c-0.8,1.3-1.5,2.5-2.1,3.5
			c-4.7-1.3-8.2-3.2-10.7-5.6v6h-3.9v-5.8c-2.6,2.3-6.1,4.2-10.6,5.7c-0.5-1-1.2-2.2-2-3.4c3.7-0.9,6.8-2,9-3.3h-8.4v-2.8h12V268.4z
			 M294.1,255.8v1.5h6.8v-1.6L294.1,255.8L294.1,255.8z M294.1,261.2h6.8v-1.6h-6.8V261.2z M294.1,265.1h6.8v-1.6h-6.8V265.1z"/>
		<path class="st0" d="M319.8,279.2v-27.6h26.7v27.6h-4.1v-1h-18.6v1.1H319.8z M342.4,255.2h-18.6v19.4h18.6V255.2z M335.3,255.9
			h3.8v2.6h2.1v3.4h-2.1v6.3c0,1.8-0.4,3.1-1.2,4c-0.8,0.9-2,1.4-3.5,1.5c-1.5,0.1-2.9,0.1-4,0.1c-0.2-1.4-0.5-2.6-0.8-3.7
			c0.9,0.1,2,0.1,3.2,0.1c1.6,0,2.4-0.8,2.4-2.4v-4.8c-2.1,3-4.9,5.9-8.6,8.7c-0.9-1.3-1.7-2.3-2.5-3.2c3.5-2,6.3-4.3,8.5-6.8h-7.6
			v-3.4h10.2V255.9z"/>
	</g>
	<circle class="st1" cx="403.4" cy="13.9" r="11.1"/>
</g>
</svg>
